<?xml version="1.0" standalone="no"?>
<!DOCTYPE svg PUBLIC "-//W3C//DTD SVG 20010904//EN"
 "http://www.w3.org/TR/2001/REC-SVG-20010904/DTD/svg10.dtd">
<svg version="1.0" xmlns="http://www.w3.org/2000/svg"
 width="700.000000pt" height="700.000000pt" viewBox="0 0 700.000000 700.000000"
 preserveAspectRatio="xMidYMid meet">
<metadata>
Created by potrace 1.11, written by Peter Selinger 2001-2013
</metadata>
<g transform="translate(0.000000,700.000000) scale(0.100000,-0.100000)"
fill="#000000" stroke="none">
<path d="M565 6932 l-50 -3 -2 -3434 -2 -3435 829 0 830 0 0 918 0 917 36 40
c20 22 73 80 118 130 44 49 101 112 126 140 43 47 117 129 150 165 8 9 51 56
95 106 112 125 134 148 139 143 13 -13 156 -242 156 -250 0 -5 5 -9 10 -9 6 0
10 -4 10 -10 0 -5 30 -55 66 -112 129 -201 384 -603 422 -665 13 -21 51 -82
85 -135 134 -211 393 -619 407 -643 8 -13 67 -106 130 -205 63 -99 124 -196
135 -214 50 -82 120 -191 126 -196 3 -3 8 -9 10 -15 2 -5 15 -29 29 -52 23
-39 29 -43 65 -43 220 -2 1918 0 1921 2 1 2 -49 82 -111 178 -63 96 -124 191
-135 210 -11 19 -78 125 -150 235 -129 198 -224 344 -312 480 -25 39 -74 115
-110 170 -36 55 -86 133 -111 173 -26 39 -68 105 -94 145 -27 39 -52 80 -58
89 -5 10 -136 212 -290 449 -154 238 -307 474 -340 525 -33 52 -98 153 -145
225 -47 72 -92 142 -100 155 -14 23 -168 261 -336 519 -188 291 -187 288 -166
297 6 2 164 188 293 343 23 28 97 115 123 145 11 14 88 106 171 205 82 99 152
182 155 185 3 3 61 73 130 155 69 83 127 152 130 155 3 3 75 88 160 190 84
102 156 187 159 190 4 3 121 142 261 310 140 168 262 314 272 325 9 11 46 56
83 100 37 44 88 104 113 133 25 29 54 65 66 80 11 15 23 29 26 32 3 3 28 32
55 65 28 33 60 71 71 85 12 14 41 48 64 75 23 28 54 64 69 81 14 17 40 47 56
68 17 21 40 49 53 63 12 13 22 26 22 29 0 2 -460 4 -1022 4 l-1023 -1 -52 -67
c-29 -37 -63 -80 -76 -97 -29 -35 -228 -285 -239 -300 -4 -5 -27 -35 -51 -65
-24 -30 -133 -167 -241 -305 -109 -137 -205 -259 -215 -270 -9 -11 -41 -52
-71 -90 -30 -39 -59 -75 -65 -81 -5 -6 -22 -26 -37 -45 -56 -72 -233 -296
-272 -345 -23 -28 -54 -68 -71 -90 -94 -120 -442 -555 -469 -585 -39 -45 -62
-72 -106 -129 -19 -24 -42 -52 -50 -60 -8 -9 -67 -80 -130 -158 l-115 -142 -3
1410 -2 1410 -43 1 c-158 2 -1522 3 -1562 1z"/>
</g>
</svg>
